HIERARCHY
ROOT pelvis
{
  OFFSET 0 100 0
  CHANNELS 6 Xposition Yposition Zposition Zrotation Xrotation Yrotation
  JOINT pelvis_right_femur
  {
    OFFSET -10.78128 -3.44521 -0.5502486
    CHANNELS 3 Zrotation Xrotation Yrotation
    JOINT right_femur_tibia
    {
      OFFSET -0.8047443 -44.0398 -0.1307829
      CHANNELS 3 Zrotation Xrotation Yrotation
      JOINT right_tibia_foot
      {
        OFFSET 3.006224 -47.83518 -5
        CHANNELS 3 Zrotation Xrotation Yrotation
        End Site
        {
          OFFSET 0 -5 15
        }
      }
    }
  }
  JOINT pelvis_left_femur
  {
    OFFSET 10.78128 -3.44521 -0.5502486
    CHANNELS 3 Zrotation Xrotation Yrotation
    JOINT left_femur_tibia
    {
      OFFSET 0.8047443 -44.0398 -0.1307829
      CHANNELS 3 Zrotation Xrotation Yrotation
      JOINT left_tibia_foot
      {
        OFFSET -4.370144 -48.10324 -4.275266
        CHANNELS 3 Zrotation Xrotation Yrotation
        End Site
        {
          OFFSET 0 -5 15
        }
      }
    }
  }
  JOINT pelvis_spine1
  {
    OFFSET 0 6.468898 -3.129235
    CHANNELS 3 Zrotation Xrotation Yrotation
    JOINT spine1
    {
      OFFSET 0 23.15396 4.99043
      CHANNELS 3 Zrotation Xrotation Yrotation
      JOINT spine2
      {
        OFFSET 0 20.79997 -5.064912
        CHANNELS 3 Zrotation Xrotation Yrotation
        JOINT neck
        {
          OFFSET 0 14.38658 9.616178
          CHANNELS 3 Zrotation Xrotation Yrotation
          End Site
          {
            OFFSET 0 20 0
          }
        }
      }
      JOINT right_manubrium
      {
        OFFSET -5.722621 16.35077 3.967754
        CHANNELS 3 Zrotation Xrotation Yrotation
        JOINT right_clavicle
        {
          OFFSET -13.16364 1.694482 -4.693211
          CHANNELS 3 Zrotation Xrotation Yrotation
          JOINT right_humerus
          {
            OFFSET -28.5034 -0.3100689 -2.792744
            CHANNELS 3 Zrotation Xrotation Yrotation
            JOINT right_radius
            {
              OFFSET -25.15693 0.02248979 -1.271978
              CHANNELS 3 Zrotation Xrotation Yrotation
              End Site
              {
                OFFSET -15 0 0
              }
            }
          }
        }
      }
      JOINT left_manubrium
      {
        OFFSET 5.722621 16.35077 3.967754
        CHANNELS 3 Zrotation Xrotation Yrotation
        JOINT left_clavicle
        {
          OFFSET 13.16364 1.694482 -4.693211
          CHANNELS 3 Zrotation Xrotation Yrotation
          JOINT left_humerus
          {
            OFFSET 29.39168 -1.063119 -2.237045
            CHANNELS 3 Zrotation Xrotation Yrotation
            JOINT left_radius
            {
              OFFSET 24.59957 -0.9528479 0.9047498
              CHANNELS 3 Zrotation Xrotation Yrotation
              End Site
              {
                OFFSET 15 -0 -0
              }
            }
          }
        }
      }
    }
  }
}
MOTION
Frames: 7
Frame Time: 0.0416666666667
0 103.5113 0 -0.4014514 -2.197841 -0.00741703 6.319528 -14.92041 8.71843 -0 36.67791 -0 -8.963077 -20.99081 -6.152046 -4.812345 8.828617 -19.94504 -0 5.720124 -0 13.86034 -11.11957 24.69406 -1.965659 -1.798805 4.802716 2.527847 10.2337 -7.083119 1.104291 21.09866 6.593962 3.198671 -24.52755 8.761709 5.304547 -18.97615 11.59283 86.08405 36.31868 -18.07655 -0 0 14.29588 -8.325073 8.068615 5.612842 6.202085 -20.4139 -2.184376 -91.01853 20.49956 19.98951 0 0 -17.35482 13.12353 11.61135 -1.863885
0.3245163 103.6171 1.573524 -0.5117564 -1.311086 0.08980579 6.949239 -17.81164 9.129406 -0 36.29623 -0 -8.038078 -20.60253 -5.968429 -5.03425 9.635512 -20.0183 -0 6.266076 -0 13.88448 -12.22314 24.46425 -1.963568 -1.791273 4.672172 2.564058 10.19777 -7.170306 1.20652 20.96891 6.704681 3.1232 -24.76 9.168947 5.301947 -18.73818 11.57549 86.59438 36.85048 -18.68433 -0 0 13.88026 -7.884525 8.351175 5.287976 6.396012 -20.43413 -2.069513 -90.24693 20.17842 18.93613 0 0 -18.81379 13.98365 11.33584 -2.888546
0.6152405 103.6273 3.257962 -0.2791069 -1.050465 0.1849728 6.63177 -19.82007 8.856669 -0 35.26102 -0 -7.317239 -18.24398 -5.285679 -5.493725 11.04311 -20.49995 -0 6.631942 -0 12.30952 -14.39027 24.72511 -1.91663 -1.889678 4.700098 2.711254 10.21479 -7.363656 1.115063 20.92827 6.639106 3.13653 -25.05721 8.990034 5.28903 -18.92379 11.56049 86.83327 36.45966 -19.24688 -0 0 13.91955 -7.334302 7.725434 5.054934 6.33404 -20.62602 -2.105528 -90.70934 20.74409 19.52187 0 0 -18.67488 13.45889 11.35756 -2.135293
0.8847323 103.5651 5.130582 -0.2274285 -0.5998055 0.2999485 6.723603 -22.22501 8.324262 -0 33.21217 -0 -6.951708 -15.84124 -4.601072 -5.776548 11.90089 -20.28701 -0 7.413467 -0 11.50679 -15.98705 24.44249 -1.880573 -1.958611 4.659217 2.846512 10.20279 -7.554322 1.084908 20.85381 6.633121 3.10854 -25.38748 9.01711 5.274936 -18.95697 11.54002 87.23934 36.37008 -19.94162 -0 0 13.74315 -6.749884 7.366399 4.771103 6.34695 -20.78057 -2.083172 -90.75657 21.11309 19.54674 0 0 -19.16835 13.32998 11.28054 -1.864327
1.135462 103.4007 7.269399 -0.2367804 -0.007544029 0.4514894 6.872187 -24.88273 7.630206 -0 30.45395 -0 -6.642349 -13.25037 -3.867508 -5.999613 12.62823 -19.79797 -0 8.212585 -0 10.64511 -17.56991 23.84551 -1.851979 -2.011663 4.604497 2.975538 10.17759 -7.731206 1.0602 20.79843 6.634229 3.070261 -25.69326 9.057649 5.260139 -18.95405 11.52058 87.62975 36.31979 -20.5839 -0 0 13.51058 -6.262984 7.090237 4.557218 6.338726 -20.91333 -2.053375 -90.76312 21.50276 19.51866 0 0 -19.66578 13.15632 11.22663 -1.527949
1.37434 103.1338 9.776656 -0.3530632 0.6788128 0.6545045 7.131771 -27.49297 6.784416 -0 27.15216 -0 -6.524531 -10.64068 -3.162243 -6.095178 13.12274 -18.92521 -0 9.235235 -0 9.91611 -18.74939 22.84746 -1.830222 -2.04938 4.528217 3.098668 10.14096 -7.899362 1.05049 20.74674 6.652831 3.017379 -25.99348 9.149056 5.244502 -18.89903 11.50196 88.04813 36.35498 -21.22309 -0 0 13.19674 -5.833753 6.922233 4.378272 6.332309 -21.0265 -2.00696 -90.65384 21.85721 19.33978 0 0 -20.29655 13.04233 11.16197 -1.256417
1.607672 102.7898 12.75941 -0.5767729 1.468239 0.9252713 7.444816 -29.86107 5.884811 -0 23.64684 -0 -6.528447 -8.129296 -2.521056 -6.05885 13.44825 -17.79139 -0 10.60226 -0 9.067411 -19.47946 21.41396 -1.817126 -2.068948 4.437907 3.208616 10.09646 -8.047006 1.051737 20.70778 6.685002 2.954108 -26.26214 9.271255 5.229508 -18.80044 11.48706 88.45392 36.45988 -21.80087 -0 0 12.82502 -5.516806 6.876373 4.265719 6.315811 -21.11342 -1.950743 -90.45802 22.17279 19.05523 0 0 -20.9741 12.95068 11.10272 -1.008791
